<svg width="36" height="36" viewBox="0 0 36 36" fill="none" xmlns="http://www.w3.org/2000/svg">
<path fill-rule="evenodd" clip-rule="evenodd" d="M0.387085 18.0001C0.387085 8.27277 8.27265 0.387207 18 0.387207C27.7273 0.387207 35.6129 8.27277 35.6129 18.0001C35.6129 27.7275 27.7273 35.613 18 35.613C8.27265 35.613 0.387085 27.7275 0.387085 18.0001ZM12.129 12.4517C12.129 11.3472 13.0245 10.4517 14.129 10.4517H14.3226C15.4271 10.4517 16.3226 11.3472 16.3226 12.4517V24.3872C16.3226 25.4918 15.4271 26.3872 14.3226 26.3872H14.129C13.0245 26.3872 12.129 25.4918 12.129 24.3872V12.4517ZM21.6774 10.4517C20.5728 10.4517 19.6774 11.3472 19.6774 12.4517V24.3872C19.6774 25.4918 20.5728 26.3872 21.6774 26.3872H21.871C22.9755 26.3872 23.871 25.4918 23.871 24.3872V12.4517C23.871 11.3472 22.9755 10.4517 21.871 10.4517H21.6774Z" fill="white"/>
</svg>
